<svg xmlns="http://www.w3.org/2000/svg" height="640" viewBox="0 0 480.001 480" width="640" xmlns:v="https://vecta.io/nano"><path d="M160 7.97c74.805.012 138.488 54.43 150.16 128.32a152.09 152.09 0 0 0-108.82 56.742 152.1 152.1 0 0 0-31.5 118.617c-3.28.238-6.56.32-9.84.32-19.12-.03-38.066-3.672-55.84-10.723L24 343.97l16-90.883C4.37 207.285-2.043 145.18 23.473 93.063S101.973 7.918 160 7.97zm0 0" fill="#fecf2c"/><path d="M173.84 246.207v-.078a146.67 146.67 0 0 1 16.402-37.281c7.027-11.668 15.672-22.277 25.68-31.52v-.082s.078-.078.078 0v-.078a151 151 0 0 1 94.16-40.879c3.28-.242 6.56-.32 9.84-.32 58.03-.05 111.016 32.973 136.53 85.094S475.63 335.285 440 381.086l16 90.883-80.16-42.723c-46.785 18.555-99.727 12.72-141.348-15.574S167.965 338.297 168 287.97c-.027-14.125 1.938-28.184 5.84-41.762zm0 0" fill="#0f71c7"/><path d="M216 231.97h208v112H216zm0 0" fill="#6fb944"/><g fill="#2d8e43"><path d="M320 319.97c-17.672 0-32-14.328-32-32s14.328-32 32-32 32 14.324 32 32-14.328 32-32 32zm80-40c-13.254 0-24-10.746-24-24h16a8 8 0 0 0 8 8zm0 0"/><path d="M392 319.97h-16c0-13.258 10.746-24 24-24v16a8 8 0 0 0-8 8zm-152-40v-16a8 8 0 0 0 8-8h16c0 13.254-10.746 24-24 24zm24 40h-16a8 8 0 0 0-8-8v-16c13.254 0 24 10.742 24 24zm0 0"/></g><path d="M190.242 208.848a146.67 146.67 0 0 0-16.402 37.281v.078a91.78 91.78 0 0 1-17.84 1.762c-33.12 0-60-17.922-60-40v-32c0 22.078 26.88 40 60 40 11.793.1 23.47-2.32 34.242-7.12zM156 151.97c33.12 0 60-17.922 60-40v32c0 22.078-26.88 40-60 40s-60-17.922-60-40v-32c0 22.078 26.88 40 60 40zm0 0" fill="#de722a"/><path d="M156 183.97c33.12 0 60-17.922 60-40v32a6.66 6.66 0 0 1-.078 1.277v.082a144.11 144.11 0 0 0-25.68 31.52 82.25 82.25 0 0 1-34.242 7.12c-33.12 0-60-17.922-60-40v-32c0 22.078 26.88 40 60 40zm60-72c0-22.094-26.863-40-60-40s-60 17.906-60 40 26.863 40 60 40 60-17.9 60-40zm0 0" fill="#f29a2b"/><path d="M320 127.97c-1.13 0-2.215.145-3.336.168C300.336 47.63 225.668-7.414 143.934.8S-.02 77.82 0 159.97a158.42 158.42 0 0 0 31.512 95.199L16.13 342.582c-.527 3.012.707 6.063 3.184 7.855a8.01 8.01 0 0 0 8.457.586l76.94-41.008c18.7 6.996 38.54 10.37 58.488 9.953A159.73 159.73 0 0 0 375.32 438l76.914 41.023c2.7 1.438 5.98 1.2 8.457-.586a8 8 0 0 0 3.18-7.863l-15.422-87.406c20.563-27.473 31.637-60.887 31.55-95.2-.102-88.324-71.676-159.898-160-160zM107.1 293.8a8.07 8.07 0 0 0-6.699.391l-65.664 34.992 13.145-74.7a8 8 0 0 0-1.551-6.289A142.7 142.7 0 0 1 16 159.969C15.96 86.422 71.375 24.672 144.496 16.785s140.43 40.617 156.082 112.477c-27.812 3.4-54.23 14.1-76.578 31.012V111.97c0-26.914-29.863-48-68-48s-68 21.086-68 48v96c0 26.9 29.863 48 68 48 2.457 0 4.87-.176 7.297-.36A159.93 159.93 0 0 0 160 287.969c0 5.406.3 10.758.8 16-18.4.102-36.63-3.352-53.7-10.168zm60.63-54.754a83.43 83.43 0 0 1-11.719.922c-28.184 0-52-14.656-52-32v-.8a81.68 81.68 0 0 0 52 16.801 96.36 96.36 0 0 0 18.313-1.793 160.35 160.35 0 0 0-6.594 16.871zM104 143.168a81.68 81.68 0 0 0 52 16.801 81.68 81.68 0 0 0 52-16.8v.8c0 17.344-23.816 32-52 32s-52-14.656-52-32zm0-31.2c0-17.344 23.816-32 52-32s52 14.656 52 32-23.816 32-52 32-52-14.656-52-32zm81.113 90.313A74.74 74.74 0 0 1 156 207.969c-28.184 0-52-14.656-52-32v-.8a81.68 81.68 0 0 0 52 16.801 84.57 84.57 0 0 0 47.648-13.488 161.58 161.58 0 0 0-18.535 23.8zm248.535 173.887c-1.402 1.78-1.984 4.07-1.602 6.305l13.176 74.703-65.598-35.008c-2.074-1.105-4.527-1.242-6.7-.375-67.238 26.695-143.852-.484-179.23-63.586s-18.605-142.64 39.242-186.082 138.914-37.36 189.645 14.215 55.46 132.73 11.07 189.852zM208 231.97v112a8 8 0 0 0 8 8h208a8 8 0 0 0 8-8v-112a8 8 0 0 0-8-8H216a8 8 0 0 0-8 8zm16 8h192v96H224zm0 0"/><path d="M320 255.97c-17.672 0-32 14.324-32 32s14.328 32 32 32 32-14.328 32-32-14.328-32-32-32zm0 48c-8.836 0-16-7.164-16-16s7.164-16 16-16 16 7.164 16 16-7.164 16-16 16zm72-48h-16c0 13.254 10.746 24 24 24v-16a8 8 0 0 1-8-8zm0 0"/><path d="M376 319.97h16a8 8 0 0 1 8-8v-16c-13.254 0-24 10.742-24 24zm-136-56v16c13.254 0 24-10.746 24-24h-16a8 8 0 0 1-8 8zm0 32v16a8 8 0 0 1 8 8h16c0-13.258-10.746-24-24-24zm0 0"/></svg>