<svg xmlns="http://www.w3.org/2000/svg" height="640" viewBox="-31 0 479 480" width="640" xmlns:v="https://vecta.io/nano"><path d="M272.5 354.64V400h-128v-45.36c40.81 17.81 87.19 17.81 128 0zm0 0" fill="#e6a71e"/><path d="M272.5 354.64c-64.848 28.3-140.582 10.648-186.238-43.406S35.88 179.56 74.637 120.36s111.785-85.9 179.6-65.687S368.5 137.246 368.5 208c.16 63.668-37.586 121.32-96 146.64zm0 0" fill="#fecf2c"/><path d="M293.38 161.36c20.438 45.012 8.773 98.105-28.645 130.4s-91.648 36.086-133.195 9.297-60.473-77.75-46.488-125.164S142.586 95.957 192.02 96c43.707-.062 83.383 25.523 101.36 65.36zm0 0" fill="#e6a71e"/><path d="M336.5 208h-32.96c.035-16.098-3.43-32.016-10.16-46.64l3.12-1.36h29.28a112.23 112.23 0 0 1 10.719 48zm0 0" fill="#e69e00"/><path d="M325.78 160H296.5l-3.12 1.36C275.3 121.602 235.7 96.055 192.02 96h32.96a111.55 111.55 0 0 1 100.801 64zm-21.28 48h32a112.23 112.23 0 0 1-10.719 48H296.5l-3.12-1.36A111 111 0 0 0 303.54 208zm0 0" fill="#d69706"/><path d="M296.5 256h29.28a111.55 111.55 0 0 1-100.801 64h-32.96c43.672-.055 83.29-25.602 101.36-65.36zm0 0" fill="#e69e00"/><path d="M392.5 200h24v16h-24zm-28.645-90.934L384.64 97.07l7.996 13.855-20.785 12zm-70.29-64.418l12-20.785 13.855 8-11.996 20.785zm70.29 262.282l8-13.855 20.785 12-8.004 13.855zm0 0" fill="#e6a71e"/><path d="M192.02 295.863c-48.406-.148-87.56-39.453-87.52-87.863h16c.184 39.46 32.293 71.316 71.754 71.2s71.367-32.184 71.3-71.645-32.074-71.414-71.535-71.4v-16c48.527 0 87.863 39.336 87.863 87.863s-39.336 87.863-87.863 87.863zm-65.665-116.36l-14.656-6.336a87.88 87.88 0 0 1 17.746-26.504l11.47 11.152a71.89 71.89 0 0 0-14.56 21.688zm0 0" fill="#d69706"/><path d="M272.5 400h-128v38.113c0 6.06 3.426 11.602 8.848 14.313L160.5 456c0 8.836 7.164 16 16 16h64c8.836 0 16-7.164 16-16l7.152-3.574c5.422-2.71 8.848-8.254 8.848-14.312zm0 0" fill="#4e4e4e"/><g fill="#e6a71e"><path d="M.5 200h24v16H.5zm23.863 105.07l20.785-11.996 8 13.855-20.785 12zm73.207 79.067l12-20.785 13.855 8-11.996 20.785zM200.5 0h16v24h-16zm0 0"/><path d="M97.574 31.863l13.855-8 12 20.78-13.86 8zm195.996 339.48l13.855-7.996 12 20.78-13.855 8zM24.363 110.926l8-13.855 20.785 12-8 13.855zm0 0"/></g><path d="M224.98 88h-46.473v.8c-60.426 7.117-105.96 58.332-105.96 119.176s45.535 112.06 105.96 119.176V328h46.473c66.273 0 120-53.727 120-120s-53.727-120-120-120zm86.16 128h16.96a103.77 103.77 0 0 1-7.602 32h-15.93c3.648-10.316 5.86-21.082 6.57-32zm0-16c-.7-10.918-2.922-21.684-6.57-32h15.93c4.2 10.195 6.773 21 7.586 32zm.934-48h-14.398a120.48 120.48 0 0 0-35.465-40.937c20.54 8.02 38 22.355 49.863 40.938zM88.5 208c.262-57.117 46.727-103.23 103.844-103.055s103.3 46.574 103.2 103.688S249.137 312.004 192.02 312c-57.277-.2-103.586-46.723-103.52-104zm173.687 96.938A120.52 120.52 0 0 0 297.652 264h14.398c-11.863 18.582-29.324 32.918-49.863 40.938zM279.547 208c.043-48.4-39.117-87.72-87.527-87.863v16a71.87 71.87 0 0 1 66.64 44.12c11.234 26.84 5.168 57.8-15.36 78.434a71.87 71.87 0 0 1-78.359 15.734c-26.894-11.1-44.44-37.327-44.44-66.425h-16c-.3 31.47 16.316 60.676 43.52 76.5a87.54 87.54 0 0 0 88.012 0c27.203-15.824 43.816-45.03 43.516-76.5zm0 0"/><path d="M140.883 157.816L129.4 146.664a87.84 87.84 0 0 0-17.71 26.504l14.688 6.336c3.47-8.055 8.383-15.402 14.496-21.687zM376.5 208c.113-83.27-60.785-154.055-143.137-166.38s-161.3 37.536-185.57 117.2S61.266 323.875 136.5 359.56v78.555a23.86 23.86 0 0 0 13.266 21.461l3.3 1.656A24.01 24.01 0 0 0 176.5 480h64a24.01 24.01 0 0 0 23.426-18.77l3.3-1.656a23.86 23.86 0 0 0 13.266-21.461V359.56A168.06 168.06 0 0 0 376.5 208zm-112 230.113a7.96 7.96 0 0 1-4.426 7.152l-7.148 3.574A8 8 0 0 0 248.5 456a8 8 0 0 1-8 8h-64a8 8 0 0 1-8-8 8 8 0 0 0-4.426-7.2l-7.148-3.578c-2.707-1.336-4.422-4.094-4.426-7.1V408h112zm0-46.113h-112v-25.8a164.91 164.91 0 0 0 112 0zm-56-32c-83.95 0-152-68.05-152-152s68.05-152 152-152 152 68.05 152 152c-.094 83.9-68.1 151.906-152 152zm0 0"/><path d="M392.5 200h24v16h-24zm-392 0h24v16H.5zm0 0"/><path d="M363.852 109.102l20.78-12 8 13.855-20.78 12zM24.36 305.078l20.785-12.004 8 13.855-20.785 12.004zm0 0"/><path d="M293.57 44.648l12-20.785 13.855 8-12 20.785zM97.566 384.125l12-20.785 13.855 8-12 20.785zM200.5 0h16v24h-16zM97.566 31.863l13.86-8 11.996 20.8-13.855 7.996zm0 0"/><path d="M293.574 371.34l13.86-8 11.996 20.785-13.855 8zm-269.21-260.4l7.996-13.86 20.785 12-7.996 13.855zm339.492 196l8-13.855 20.785 12-8.004 13.855zm0 0"/></svg>