<svg xmlns="http://www.w3.org/2000/svg" viewBox="0 0 511.999 511.999" xmlns:v="https://vecta.io/nano"><path d="M79.74 50.366v293.766L256 503.605l176.26-170.66V50.366h-92.326L256 8.4l-83.933 41.966z" fill="#6e6f71"/><path d="M113.313 327.882V83.94l58.753-.495L256 41.973l83.934 41.47 58.753.495V317.7l-143.76 142.224z" fill="#bcbdc1"/><circle cx="255.999" cy="235.019" r="100.72" fill="#e7e8ed"/><path d="M279.778 234.104l-15.385-5.128v-34.723c9.082 1.68 15.94 9.182 16.787 18.38h16.787c-1.09-18.44-15.234-33.447-33.573-35.63v-9.132h-16.787v9.132c-18.34 2.19-32.482 17.206-33.573 35.646a24.96 24.96 0 0 0 18.188 23.283l15.385 5.128v34.723c-9.082-1.68-15.94-9.182-16.787-18.38h-16.787c1.09 18.44 15.234 33.447 33.573 35.63v9.132h16.787v-9.132c18.34-2.19 32.482-17.206 33.573-35.646-.327-10.895-7.688-20.32-18.188-23.283zm-32.172-10.727l-10.072-3.357c-3.567-.814-6.245-3.76-6.715-7.386.848-9.2 7.705-16.703 16.787-18.38v29.124zm16.787 52.408V246.66l10.072 3.357c3.567.814 6.245 3.76 6.715 7.386-.848 9.2-7.706 16.712-16.787 18.382z" fill="#6e6f71"/><path d="M440.652 332.944V50.366a8.4 8.4 0 0 0-8.393-8.393h-90.346L259.75.888c-2.36-1.183-5.145-1.183-7.504 0l-82.162 41.085H79.74a8.4 8.4 0 0 0-8.393 8.393v293.766a8.4 8.4 0 0 0 2.761 6.219l176.26 159.473a8.4 8.4 0 0 0 11.474-.185l176.26-170.66a8.34 8.34 0 0 0 2.552-6.034zm-16.786-3.56l-168.06 162.73-167.673-151.7V58.76h83.933a8.46 8.46 0 0 0 3.752-.88L256 17.783l80.18 40.137a8.33 8.33 0 0 0 3.752.839h83.933v270.626zM252.28 34.42l-82.204 40.615-56.83.512a8.4 8.4 0 0 0-8.326 8.393v243.943a8.39 8.39 0 0 0 2.669 6.144L249.2 466.07c3.3 3.072 8.418 2.996 11.625-.168L404.56 323.677a8.39 8.39 0 0 0 2.518-5.968V83.94c0-4.608-3.718-8.36-8.326-8.393l-56.83-.478-82.204-40.65c-2.342-1.167-5.095-1.167-7.437 0zm87.584 57.385l50.427.42V314.2L254.757 448.293 121.707 324.24V92.257l50.427-.42a8.48 8.48 0 0 0 3.65-.84L256 51.33l80.215 39.642c1.133.554 2.384.856 3.65.865v-.034zM146.887 235.02c0 60.264 48.85 109.113 109.113 109.113s109.113-48.85 109.113-109.113S316.264 125.906 256 125.906c-60.23.075-109.038 48.882-109.113 109.113zm201.44 0c0 51-41.337 92.326-92.326 92.326s-92.326-41.337-92.326-92.326S205 142.693 256 142.693c50.972.067 92.267 41.362 92.326 92.326zm-100.72-67.148v9.132c-18.34 2.2-32.482 17.206-33.573 35.646a24.96 24.96 0 0 0 18.188 23.283l15.385 5.128v34.723c-9.082-1.68-15.94-9.182-16.787-18.38h-16.787c1.1 18.44 15.234 33.447 33.573 35.63v9.132h16.787v-9.132c18.34-2.2 32.482-17.206 33.573-35.646a24.96 24.96 0 0 0-18.188-23.283l-15.385-5.128v-34.723c9.082 1.68 15.94 9.182 16.787 18.38h16.787c-1.1-18.44-15.234-33.447-33.573-35.63v-9.132h-16.787zm0 55.505l-10.072-3.357c-3.567-.814-6.245-3.76-6.715-7.386a20.61 20.61 0 0 1 16.787-18.38v29.124zm26.86 26.64c3.567.814 6.245 3.76 6.715 7.386a20.61 20.61 0 0 1-16.787 18.38V246.66l10.072 3.358z"/></svg>